<svg xmlns="http://www.w3.org/2000/svg" xmlns:xlink="http://www.w3.org/1999/xlink" width="152" zoomAndPan="magnify" viewBox="0 0 114 112.499997" height="150" preserveAspectRatio="xMidYMid meet" version="1.0"><path fill="#d775a6" d="M 56.605469 103.949219 C 45.847656 103.949219 35.386719 100.441406 26.800781 93.957031 C 18.214844 87.476562 11.980469 78.371094 9.035156 68.023438 C 6.089844 57.679688 6.597656 46.65625 10.480469 36.625 C 14.363281 26.589844 21.410156 18.097656 30.550781 12.433594 C 39.695312 6.765625 50.4375 4.234375 61.148438 5.21875 C 71.859375 6.207031 81.957031 10.65625 89.914062 17.898438 C 97.867188 25.140625 103.246094 34.777344 105.230469 45.347656 C 107.214844 55.921875 105.703125 66.851562 100.917969 76.488281 C 99.996094 78.246094 99.757812 80.28125 100.25 82.203125 L 103.21875 93.222656 C 103.511719 94.3125 103.511719 95.460938 103.21875 96.550781 C 102.929688 97.640625 102.355469 98.632812 101.558594 99.429688 C 100.757812 100.230469 99.765625 100.800781 98.675781 101.09375 C 97.585938 101.386719 96.4375 101.382812 95.347656 101.089844 L 84.328125 98.121094 C 82.417969 97.644531 80.398438 97.878906 78.648438 98.789062 C 71.785156 102.203125 64.25 103.984375 56.605469 103.984375 Z M 56.605469 103.949219 " fill-opacity="1" fill-rule="nonzero"/></svg>